<?xml version="1.0" standalone="no"?>
<!DOCTYPE svg PUBLIC "-//W3C//DTD SVG 20010904//EN"
 "http://www.w3.org/TR/2001/REC-SVG-20010904/DTD/svg10.dtd">
<svg version="1.0" xmlns="http://www.w3.org/2000/svg"
 width="2000.000000pt" height="2000.000000pt" viewBox="0 0 2000.000000 2000.000000"
 preserveAspectRatio="xMidYMid meet">
<metadata>
Created by potrace 1.14, written by Peter Selinger 2001-2017
</metadata>
<g transform="translate(0.000000,2000.000000) scale(0.100000,-0.100000)"
fill="#000000" stroke="none">
<path d="M0 10000 l0 -10000 10000 0 10000 0 0 10000 0 10000 -10000 0 -10000
0 0 -10000z m17980 9300 l0 -80 -40 0 -40 0 0 80 0 80 40 0 40 0 0 -80z m380
0 l0 -80 -155 0 -155 0 0 80 0 80 155 0 155 0 0 -80z m380 0 l0 -80 -155 0
-155 0 0 80 0 80 155 0 155 0 0 -80z m-17420 -235 l0 -155 -80 0 -80 0 0 155
0 155 80 0 80 0 0 -155z m1390 5 l0 -80 -80 0 -80 0 0 80 0 80 80 0 80 0 0
-80z m6170 -160 l0 -80 -80 0 -80 0 0 80 0 80 80 0 80 0 0 -80z m-7560 -225
l0 -155 -80 0 -80 0 0 155 0 155 80 0 80 0 0 -155z m13230 -360 l0 -175 -175
0 -175 0 0 175 0 175 175 0 175 0 0 -175z m4260 145 l0 -30 -1880 0 -1880 0 0
30 0 30 1880 0 1880 0 0 -30z m-17490 -50 l0 -40 -80 0 -80 0 0 40 0 40 80 0
80 0 0 -40z m13230 -540 l0 -70 -175 0 -175 0 0 70 0 70 175 0 175 0 0 -70z
m0 -350 l0 -70 -175 0 -175 0 0 70 0 70 175 0 175 0 0 -70z m-5060 -1945 c0
-3 -1067 -1792 -2371 -3977 -1304 -2184 -2373 -3977 -2376 -3985 -4 -11 160
-13 948 -13 l954 1 1645 2789 c905 1535 1647 2790 1650 2790 9 0 965 -1623
962 -1633 -3 -10 -92 -159 -2006 -3369 l-1299 -2178 -2855 0 c-2655 0 -2854 1
-2848 17 4 9 1288 2164 2854 4789 l2847 4774 948 0 c521 0 947 -2 947 -5z
m4040 -3588 c1166 -1968 2120 -3580 2120 -3582 0 -3 -426 -5 -947 -5 l-948 0
-1645 2782 c-905 1530 -1646 2787 -1648 2795 -5 18 931 1604 940 1595 4 -4
962 -1617 2128 -3585z m3460 3513 l0 -80 -80 0 -80 0 0 80 0 80 80 0 80 0 0
-80z m1940 -2640 l0 -950 -40 0 -40 0 0 950 0 950 40 0 40 0 0 -950z m-1360
-480 c0 -5 -2 -10 -4 -10 -3 0 -8 5 -11 10 -3 6 -1 10 4 10 6 0 11 -4 11 -10z
m1360 -755 l0 -175 -175 0 -175 0 0 175 0 175 175 0 175 0 0 -175z m0 -320 l0
-45 -205 0 -205 0 0 45 0 45 205 0 205 0 0 -45z m-1810 -5296 c542 -875 987
-1595 988 -1600 2 -5 -402 -9 -970 -9 l-974 0 -480 798 -480 797 -3332 5
-3331 5 445 725 c245 399 466 758 491 798 l44 72 3307 0 3307 0 985 -1591z"/>
</g>
</svg>
